# xmcd
#
# Track frame offsets: 
#        187
#        13302
#        25912
#        40772
#        56434
#        96539
#        132032
#        148929
#        182452
#        206959
#        224444
#        247242
#        270737
#        286647
#
# Disc length: 4032 seconds
#
# Revision: 0
# Processed by: cddbd v1.5.2PL0 Copyright (c) Steve Scherf et al.
# Submitted via: ExactAudioCopy v0.99pb4
#
DISCID=da0fbe0e
DTITLE=Curtis Mayfield and The Impressions - The Anthology 1961-1977 [Di
DTITLE=sc 2]
DYEAR=1993
DGENRE=Soul
TTITLE0=The Impressions - Fool For You
TTITLE1=The Impressions - This Is My Country
TTITLE2=The Impressions - Choice Of Colors
TTITLE3=The Impressions - Check Out Your Mind
TTITLE4=Curtis Mayfield - Move On Up
TTITLE5=Curtis Mayfield - (Don't Worry) If There's A Hell Below, We're
TTITLE5=All Going To Go
TTITLE6=Curtis Mayfield - The Makings Of You
TTITLE7=Curtis Mayfield - Beautiful Brother Of Mine
TTITLE8=Curtis Mayfield - Freddie's Dead
TTITLE9=Curtis Mayfield - Superfly
TTITLE10=Curtis Mayfield - Pusherman
TTITLE11=Curtis Mayfield - So In Love
TTITLE12=Curtis Mayfield - Only You Babe (single Edit)
TTITLE13=Curtis Mayfield - Do Do Wap Is Strong In Here (single Edit)
EXTD=
EXTT0=
EXTT1=
EXTT2=
EXTT3=
EXTT4=
EXTT5=
EXTT6=
EXTT7=
EXTT8=
EXTT9=
EXTT10=
EXTT11=
EXTT12=
EXTT13=
PLAYORDER=
